<?xml version="1.0" encoding="utf-8"?>
<!-- Generator: Adobe Illustrator 17.0.0, SVG Export Plug-In . SVG Version: 6.00 Build 0)  -->
<!DOCTYPE svg PUBLIC "-//W3C//DTD SVG 1.1//EN" "http://www.w3.org/Graphics/SVG/1.1/DTD/svg11.dtd">
<svg version="1.1" id="Layer_1" xmlns="http://www.w3.org/2000/svg" xmlns:xlink="http://www.w3.org/1999/xlink" x="0px" y="0px"
	 width="600px" height="600px" viewBox="0 0 600 600" enable-background="new 0 0 600 600" xml:space="preserve">
<circle fill="none" stroke="#CDCCCC" stroke-width="3" stroke-linecap="round" stroke-linejoin="round" stroke-miterlimit="10" cx="193.324" cy="-242.533" r="212.5"/>
<circle fill="none" stroke="#CDCCCC" stroke-width="3" stroke-linecap="round" stroke-linejoin="round" stroke-miterlimit="10" cx="535.824" cy="-324.033" r="131"/>
<g>
	
		<rect x="-19.676" y="-455.056" fill="none" stroke="#1072BA" stroke-width="3" stroke-linecap="round" stroke-linejoin="round" stroke-miterlimit="10" width="424.676" height="424.678"/>
	
		<rect x="405" y="-455.056" fill="none" stroke="#1072BA" stroke-width="3" stroke-linecap="round" stroke-linejoin="round" stroke-miterlimit="10" width="262.324" height="262.324"/>
	
		<rect x="504.96" y="-192.742" fill="none" stroke="#1072BA" stroke-width="3" stroke-linecap="round" stroke-linejoin="round" stroke-miterlimit="10" width="162.363" height="162.364"/>
	
		<rect x="404.998" y="-130.314" fill="none" stroke="#1072BA" stroke-width="3" stroke-linecap="round" stroke-linejoin="round" stroke-miterlimit="10" width="99.936" height="99.935"/>
	
		<rect x="404.998" y="-192.728" fill="none" stroke="#1072BA" stroke-width="3" stroke-linecap="round" stroke-linejoin="round" stroke-miterlimit="10" width="62.348" height="62.414"/>
	
		<rect x="467.346" y="-192.728" fill="none" stroke="#1072BA" stroke-width="3" stroke-linecap="round" stroke-linejoin="round" stroke-miterlimit="10" width="37.615" height="37.615"/>
	
		<rect x="480.089" y="-155.113" fill="none" stroke="#1072BA" stroke-width="3" stroke-linecap="round" stroke-linejoin="round" stroke-miterlimit="10" width="24.872" height="24.806"/>
	
		<rect x="467.346" y="-143.051" fill="none" stroke="#1072BA" stroke-width="3" stroke-linecap="round" stroke-linejoin="round" stroke-miterlimit="10" width="12.743" height="12.743"/>
	<path fill="none" stroke="#1072BA" stroke-width="3" stroke-linecap="round" stroke-linejoin="round" stroke-miterlimit="10" d="
		M-19.176-30.033c0-234.912,190.088-425,425-425h-1c144.816,0,262,117.184,262,262c0,90.096-72.904,163-163,163h1
		c-55.273,0-100-44.727-100-100c0-34.822,28.178-63,63-63h-1c21.004,0,38,16.996,38,38c0,13.818-11.182,25-25,25
		c-6.633,0-12-5.814-12-13"/>
</g>
<g>
	
		<rect x="158.724" y="85.425" fill="none" stroke="#000000" stroke-width="6" stroke-miterlimit="10" width="247.59" height="397.562"/>
	<g>
		<path fill="#FFFFFF" stroke="#000000" stroke-width="6" stroke-miterlimit="10" d="M441.276,117.349h-244.92v397.226
			C330.774,429.902,424.582,285.182,441.276,117.349z"/>
	</g>
</g>
<rect x="63" y="1672" fill="none" stroke="#000000" stroke-width="6" stroke-miterlimit="10" width="517" height="28"/>
</svg>
