<svg id="gate" xmlns="http://www.w3.org/2000/svg" width="32.892" height="24.091" viewBox="0 0 32.892 24.091">
  <path id="Path_17" data-name="Path 17" d="M301,60h1.927V74.454H301Zm0,0" transform="translate(-281.663 -56.145)"/>
  <path id="Path_18" data-name="Path 18" d="M361,60h1.927V74.454H361Zm0,0" transform="translate(-337.809 -56.145)"/>
  <path id="Path_19" data-name="Path 19" d="M121,60h1.927V74.454H121Zm0,0" transform="translate(-113.227 -56.145)"/>
  <path id="Path_20" data-name="Path 20" d="M181,60h1.927V74.454H181Zm0,0" transform="translate(-169.372 -56.145)"/>
  <path id="Path_21" data-name="Path 21" d="M0,0V24.091H5.846V22.164h21.2v1.927h5.846V0ZM3.919,22.164H1.927V1.927H3.919ZM5.846,1.927h9.636V20.236H5.846ZM17.41,20.236V1.927h9.636V20.236Zm13.555,1.927H28.973V1.927h1.992Zm0,0"/>
</svg>
