<svg xmlns="http://www.w3.org/2000/svg" width="71.271" height="65.938" viewBox="0 0 71.271 65.938">
  <g id="garage" transform="translate(-29 -48.154)">
    <g id="Group_35" data-name="Group 35" transform="translate(29 48.154)">
      <path id="Path_16" data-name="Path 16" d="M70.731,49.19,56.047,36.41a1.014,1.014,0,1,0-1.331,1.53L68.467,49.908H62.218L36.655,27.661a1.56,1.56,0,0,0-2.04,0L9.053,49.907H2.8l9.517-8.282h0L21.3,33.813h0L35.635,21.334,51.085,34.78a1.014,1.014,0,1,0,1.331-1.53L36.655,19.534a1.56,1.56,0,0,0-2.04,0L23.508,29.2V26.331a1.588,1.588,0,0,0-1.586-1.586H10.007A1.588,1.588,0,0,0,8.42,26.331v2.984A1.588,1.588,0,0,0,10.007,30.9h.634v9.5L.539,49.19a1.565,1.565,0,0,0,1.027,2.745H8.416V69.967a1.014,1.014,0,0,0,2.028,0V51.386l6.282-5.467,18.91-16.457,18.91,16.457,6.282,5.467V82.533a.532.532,0,0,1-.532.532h-9V58.2h.962a1.232,1.232,0,0,0,1.231-1.231v-4.8a1.232,1.232,0,0,0-1.231-1.231H19.015a1.232,1.232,0,0,0-1.231,1.231v4.8A1.232,1.232,0,0,0,19.015,58.2h.962V83.065h-9a.532.532,0,0,1-.532-.532V74.766a1.014,1.014,0,1,0-2.028,0v7.768a2.562,2.562,0,0,0,2.559,2.559H60.3a2.562,2.562,0,0,0,2.559-2.559v-30.6H69.7a1.565,1.565,0,0,0,1.027-2.745Zm-51.114-16.6-6.949,6.048V30.9h6.949Zm-9.17-3.712v-2.1H21.48v2.1H10.448ZM49.265,83.065H22.005V79.714h27.26Zm0-5.379H22.005V74.335h27.26Zm0-5.379H22.005V68.957h27.26Zm0-5.379H22.005V63.578h27.26ZM22.005,61.55V58.2h27.26V61.55Zm28.274-5.379H19.812V52.964H51.458v3.207H50.279Z" transform="translate(0 -19.154)"/>
    </g>
  </g>
</svg>
