<svg xmlns="http://www.w3.org/2000/svg" width="71.159" height="67.373" viewBox="0 0 71.159 67.373">
  <g id="_002-toilet" data-name="002-toilet" transform="translate(0 -13.623)">
    <g id="Group_10" data-name="Group 10" transform="translate(5.073 16.421)">
      <g id="Group_9" data-name="Group 9">
        <path id="Path_3" data-name="Path 3" d="M40.878,33.754H37.959A1.461,1.461,0,0,0,36.5,35.213v2.919a1.461,1.461,0,0,0,1.459,1.459h2.919a1.461,1.461,0,0,0,1.459-1.459V35.213A1.461,1.461,0,0,0,40.878,33.754Zm-.625,3.753H38.585V35.839h1.668Z" transform="translate(-36.5 -33.754)"/>
      </g>
    </g>
    <g id="Group_12" data-name="Group 12" transform="translate(47.524 31.261)">
      <g id="Group_11" data-name="Group 11" transform="translate(0 0)">
        <path id="Path_4" data-name="Path 4" d="M362.837,143.307h-3.431v-1.041a1.739,1.739,0,0,0-1.737-1.737h-8.824a1.739,1.739,0,0,0-1.737,1.737v1.041h-3.431a1.739,1.739,0,0,0-1.737,1.737v9.1a1.74,1.74,0,0,0,1.738,1.737h1.065v8.039c0,.522,0,.836.321,1.151a1.037,1.037,0,0,0,.092.08c.035.033.1.1.2.2l1.9,1.918a1.455,1.455,0,0,0,2.068,0l1.451-1.466,1.451,1.466a1.455,1.455,0,0,0,2.068,0l1.451-1.466,1.451,1.466a1.456,1.456,0,0,0,2.068,0l1.9-1.918c.093-.094.16-.159.2-.194a1.106,1.106,0,0,0,.413-.924c0-.079,0-.189,0-.311V155.88h1.065a1.739,1.739,0,0,0,1.737-1.737v-9.1A1.739,1.739,0,0,0,362.837,143.307Zm-3.149,15.033h0a1.041,1.041,0,0,0,0,1.976v3.556l-.009.009-1.451,1.466-1.451-1.467a1.455,1.455,0,0,0-2.068,0l-1.451,1.466-1.451-1.466a1.455,1.455,0,0,0-2.068,0l-1.451,1.466-1.451-1.466-.01-.01v-3.5a1.042,1.042,0,0,0,0-2.084V155.88h12.861Zm2.8-4.544H344.023v-8.4h3.084v.7a1.739,1.739,0,0,0,1.737,1.737h3.109a1.042,1.042,0,0,0,0-2.085h-2.762v-3.129h8.129v3.129h-.364a1.042,1.042,0,0,0,0,2.085h.712a1.739,1.739,0,0,0,1.737-1.737v-.7h3.084Z" transform="translate(-341.938 -140.528)"/>
      </g>
    </g>
    <g id="Group_14" data-name="Group 14" transform="translate(54.137 49.018)">
      <g id="Group_13" data-name="Group 13">
        <path id="Path_5" data-name="Path 5" d="M391.262,268.294h-.695a1.042,1.042,0,0,0,0,2.085h.695a1.042,1.042,0,0,0,0-2.085Z" transform="translate(-389.525 -268.294)"/>
      </g>
    </g>
    <g id="Group_16" data-name="Group 16" transform="translate(61.086 49.018)">
      <g id="Group_15" data-name="Group 15">
        <path id="Path_6" data-name="Path 6" d="M441.262,268.294h-.695a1.042,1.042,0,0,0,0,2.085h.695a1.042,1.042,0,1,0,0-2.085Z" transform="translate(-439.525 -268.294)"/>
      </g>
    </g>
    <g id="Group_18" data-name="Group 18" transform="translate(57.612 49.018)">
      <g id="Group_17" data-name="Group 17">
        <path id="Path_7" data-name="Path 7" d="M416.262,268.294h-.695a1.042,1.042,0,0,0,0,2.085h.695a1.042,1.042,0,1,0,0-2.085Z" transform="translate(-414.525 -268.294)"/>
      </g>
    </g>
    <g id="Group_20" data-name="Group 20" transform="translate(0.303 13.623)">
      <g id="Group_19" data-name="Group 19">
        <path id="Path_8" data-name="Path 8" d="M71.993,78.911H37.555V76.7a1.739,1.739,0,0,0-1.737-1.737H33.674l-3.344-8.712a15.1,15.1,0,0,0,9.008-12.339h.742a1.739,1.739,0,0,0,1.737-1.737V49.625a1.739,1.739,0,0,0-1.737-1.737H33.974a16.333,16.333,0,0,0,1.783-2.073h6.562a2.435,2.435,0,0,0,2.432-2.432V26.093h2.061a1.739,1.739,0,0,0,1.737-1.737v-5.47a1.739,1.739,0,0,0-1.737-1.737H44.75V16.055a2.435,2.435,0,0,0-2.432-2.432H6.6a2.435,2.435,0,0,0-2.432,2.432V43.382A2.435,2.435,0,0,0,6.6,45.815h6.561a16.335,16.335,0,0,0,1.783,2.073H8.838A1.739,1.739,0,0,0,7.1,49.625v2.554a1.739,1.739,0,0,0,1.737,1.737h.741a15.106,15.106,0,0,0,9.008,12.339l-3.344,8.712H13.1A1.739,1.739,0,0,0,11.363,76.7v2.206H3.221a1.042,1.042,0,1,0,0,2.085H71.993a1.042,1.042,0,1,0,0-2.085ZM44.75,19.233h1.714v4.775H44.75Zm-2.432,24.5H37.052A18.321,18.321,0,0,0,38.117,41.3h4.548v2.084h0A.352.352,0,0,1,42.318,43.73ZM6.6,43.73a.352.352,0,0,1-.347-.347V41.3H10.8a18.32,18.32,0,0,0,1.065,2.431Zm5.174-8.96c0-8.317,5.69-15.084,12.685-15.084a10.88,10.88,0,0,1,4.888,1.163,1.042,1.042,0,1,0,.929-1.866A12.947,12.947,0,0,0,24.459,17.6c-8.144,0-14.77,7.7-14.77,17.169a19.757,19.757,0,0,0,.5,4.444H6.253V16.055a.352.352,0,0,1,.347-.347H42.318a.352.352,0,0,1,.347.347V39.214h-3.94a19.757,19.757,0,0,0,.5-4.444,18.614,18.614,0,0,0-4.764-12.633,1.042,1.042,0,1,0-1.524,1.423,16.51,16.51,0,0,1,4.2,11.21,15.761,15.761,0,0,1-6.433,13.118h-12.5A15.762,15.762,0,0,1,11.774,34.77ZM9.185,51.832V49.973H39.733v1.859Zm6.235,9.8a12.988,12.988,0,0,1-3.742-7.711H37.24A12.985,12.985,0,0,1,33.5,61.628a12.772,12.772,0,0,1-18.078,0ZM35.47,78.911H13.448V77.052H25.364a1.042,1.042,0,1,0,0-2.085H17.477l3.08-8.024a14.966,14.966,0,0,0,7.805,0l3.08,8.024H30.229a1.042,1.042,0,0,0,0,2.085H35.47Z" transform="translate(-2.179 -13.623)"/>
      </g>
    </g>
    <g id="Group_22" data-name="Group 22" transform="translate(50.614 14.582)">
      <g id="Group_21" data-name="Group 21">
        <path id="Path_9" data-name="Path 9" d="M374.209,24.659c-2.112-.665-2.367-.922-3.026-3.062a1.524,1.524,0,0,0-2.915,0c-.659,2.139-.914,2.4-3.025,3.061a1.532,1.532,0,0,0,0,2.921c2.112.665,2.367.922,3.026,3.06a1.524,1.524,0,0,0,2.916,0c.659-2.139.914-2.4,3.025-3.06a1.532,1.532,0,0,0,0-2.921Zm-4.483,3.892A4.3,4.3,0,0,0,367.3,26.12a4.3,4.3,0,0,0,2.424-2.432,4.3,4.3,0,0,0,2.423,2.432A4.3,4.3,0,0,0,369.726,28.551Z" transform="translate(-364.173 -20.52)"/>
      </g>
    </g>
    <g id="Group_24" data-name="Group 24" transform="translate(0 64.486)">
      <g id="Group_23" data-name="Group 23">
        <path id="Path_10" data-name="Path 10" d="M9.089,383.285c-1.848-.582-2.044-.78-2.621-2.652a1.472,1.472,0,0,0-2.815,0c-.577,1.872-.773,2.07-2.621,2.652a1.479,1.479,0,0,0,0,2.82c1.83.576,2.05.8,2.621,2.65a1.472,1.472,0,0,0,2.815,0c.571-1.853.792-2.076,2.62-2.652a1.479,1.479,0,0,0,0-2.82Zm-4.028,3.3a3.779,3.779,0,0,0-1.889-1.894A3.78,3.78,0,0,0,5.061,382.8a3.778,3.778,0,0,0,1.889,1.894A3.78,3.78,0,0,0,5.061,386.589Z" transform="translate(0 -379.592)"/>
      </g>
    </g>
    <g id="Group_26" data-name="Group 26" transform="translate(39.714 55.549)">
      <g id="Group_25" data-name="Group 25">
        <path id="Path_11" data-name="Path 11" d="M294.441,318.8c-1.73-.544-1.913-.73-2.452-2.481a1.45,1.45,0,0,0-2.773,0c-.54,1.751-.723,1.937-2.452,2.481a1.456,1.456,0,0,0,0,2.777c1.729.544,1.913.73,2.452,2.481a1.45,1.45,0,0,0,2.773,0c.54-1.752.723-1.937,2.452-2.481a1.457,1.457,0,0,0,0-2.777ZM290.6,321.86a3.571,3.571,0,0,0-1.673-1.677,3.571,3.571,0,0,0,1.673-1.677,3.57,3.57,0,0,0,1.673,1.676A3.572,3.572,0,0,0,290.6,321.86Z" transform="translate(-285.746 -315.288)"/>
      </g>
    </g>
    <g id="Group_28" data-name="Group 28" transform="translate(12.856 27.052)">
      <g id="Group_27" data-name="Group 27" transform="translate(0 0)">
        <path id="Path_12" data-name="Path 12" d="M94.279,110.554a1.042,1.042,0,1,0,.306.738A1.051,1.051,0,0,0,94.279,110.554Z" transform="translate(-92.5 -110.25)"/>
      </g>
    </g>
    <g id="Group_30" data-name="Group 30" transform="translate(30.368 27.052)">
      <g id="Group_29" data-name="Group 29" transform="translate(0 0)">
        <path id="Path_13" data-name="Path 13" d="M220.279,110.554a1.042,1.042,0,1,0,.306.738A1.051,1.051,0,0,0,220.279,110.554Z" transform="translate(-218.5 -110.25)"/>
      </g>
    </g>
    <g id="Group_32" data-name="Group 32" transform="translate(12.856 40.254)">
      <g id="Group_31" data-name="Group 31">
        <path id="Path_14" data-name="Path 14" d="M94.279,205.546a1.042,1.042,0,1,0,.306.738A1.053,1.053,0,0,0,94.279,205.546Z" transform="translate(-92.5 -205.24)"/>
      </g>
    </g>
    <g id="Group_34" data-name="Group 34" transform="translate(30.368 40.254)">
      <g id="Group_33" data-name="Group 33">
        <path id="Path_15" data-name="Path 15" d="M220.279,205.546a1.042,1.042,0,1,0,.306.738A1.052,1.052,0,0,0,220.279,205.546Z" transform="translate(-218.5 -205.24)"/>
      </g>
    </g>
  </g>
</svg>
